<svg x="0px" y="0px"
	 width="50" height="50" viewBox="0 0 472.579 404.376">
<g id="Layer_X">
	<g id="change2">
		<path id="path4_2_" fill="#F76B6B" d="M236.359,73.508c-23.129-35.752-61.688-60.77-107.93-60.77
			c-65.555,0-115.645,59.66-115.645,107.271c0,92.402,69.383,135.867,223.574,271.727
			C390.566,255.877,459.957,212.413,459.957,120.01c0-47.611-50.137-107.271-115.668-107.271
			C298.05,12.739,259.492,37.756,236.359,73.508z"/>
	</g>
	<g id="X">
		<path id="path4_1_" opacity="0.34" fill="#BA5454" d="M236.359,391.737C390.566,255.877,459.957,212.413,459.957,120.01
			c0-47.611-50.137-107.271-115.668-107.271c-46.238,0-84.797,25.018-107.93,60.77"/>
	</g>
	<g id="change1">
		<path fill="#FFFFFF" d="M247.343,67.088C218.983,23.729,169.428-4.723,116.775,0.65C68.61,5.564,26.199,38.987,7.766,83.394
			c-12.425,29.935-8.843,65.743,2.997,95.398c12.078,30.25,32.915,55.591,55.491,78.675c21.195,21.674,44.091,41.669,66.944,61.557
			c31.351,27.28,62.978,54.239,94.166,81.708c5.457,4.806,12.533,4.806,17.99,0c41-36.106,82.97-71.126,123.589-107.662
			c27.151-24.422,54.208-49.891,74.921-80.187c16.82-24.602,26.607-52.578,28.499-82.321c2.798-43.997-21.937-83.399-57.23-108.1
			C385.093,1.438,347.539-4.383,312.109,3.827c-36.093,8.364-66.69,32.621-86.734,63.261c-3.8,5.809-1.189,14.034,4.564,17.405
			c6.21,3.638,13.617,1.227,17.405-4.564c12.537-19.165,29.756-34.534,51.005-44.623c20-9.496,45.582-12.291,66.86-7.526
			c39.96,8.948,73.981,43.051,81.282,82.483c0.077,0.414,0.603,4.118,0.208,1.041c0.141,1.093,0.233,2.191,0.326,3.29
			c0.177,2.099,0.214,4.207,0.208,6.312c-0.009,3.795-0.165,7.59-0.426,11.376c-0.117,1.701-0.275,3.398-0.448,5.094
			c-0.085,0.839-0.184,1.676-0.283,2.513c-0.353,2.976,0.432-3.02,0.015-0.065c-0.5,3.536-1.159,7.048-1.922,10.536
			c-1.446,6.604-3.437,13.082-5.834,19.4c-0.34,0.897-2.43,5.925-0.859,2.239c-0.643,1.508-1.323,2.999-2.016,4.484
			c-1.523,3.268-3.19,6.467-4.936,9.621c-3.513,6.35-7.486,12.438-11.705,18.338c-1.062,1.485-2.15,2.95-3.247,4.409
			c-0.354,0.471-2.294,2.982-0.27,0.372c-0.576,0.743-1.16,1.479-1.745,2.216c-2.607,3.289-5.31,6.503-8.056,9.678
			c-12.028,13.908-25.196,26.812-38.613,39.366c-45.138,42.238-93.142,81.412-139.524,122.259c5.997,0,11.993,0,17.99,0
			c-40.996-36.106-82.961-71.127-123.577-107.662c-14.692-13.217-29.151-26.725-42.783-41.041
			c-5.815-6.106-11.438-12.396-16.812-18.894c-1.213-1.468-2.405-2.954-3.588-4.446c-0.363-0.458-2.331-3.005-0.308-0.377
			c-0.563-0.732-1.118-1.47-1.673-2.208c-2.341-3.115-4.586-6.301-6.757-9.537c-3.959-5.901-7.559-12.041-10.769-18.381
			c-0.746-1.473-1.456-2.963-2.153-4.458c-0.406-0.871-2.57-5.901-1.02-2.203c-1.359-3.242-2.57-6.545-3.682-9.88
			c-2.146-6.441-3.751-13.054-4.93-19.737c-0.289-1.635-0.535-3.277-0.767-4.92c0.584,4.135-0.137-1.471-0.238-2.465
			c-0.378-3.721-0.591-7.457-0.712-11.195c-0.128-3.952-0.108-7.896,0.224-11.839c0.037-0.431,0.513-4.074,0.078-1.021
			c0.159-1.114,0.364-2.22,0.568-3.326c0.487-2.635,1.152-5.234,1.877-7.812c2.744-9.759,5.937-16.175,11.98-25.667
			C51.23,58.524,67.529,44.277,86.94,34.811c10.023-4.888,24.31-8.498,35.618-9.191c14.686-0.901,27.321,1.061,41.265,5.569
			c25.084,8.109,47.124,26.682,61.552,48.74c3.788,5.792,11.195,8.201,17.405,4.564C248.534,81.122,251.143,72.897,247.343,67.088z"
			/>
		<path fill="#FFFFFF" d="M245.354,400.732c41-36.106,82.97-71.126,123.589-107.662c27.151-24.422,54.208-49.891,74.921-80.187
			c16.82-24.602,26.607-52.578,28.499-82.321c2.798-43.997-21.937-83.399-57.23-108.1C385.093,1.438,347.539-4.383,312.109,3.827
			c-36.093,8.364-66.69,32.621-86.734,63.261c-3.8,5.809-1.189,14.034,4.564,17.405c6.21,3.638,13.617,1.227,17.405-4.564
			c12.537-19.165,29.756-34.534,51.005-44.623c20-9.496,45.582-12.291,66.86-7.526c39.96,8.948,73.981,43.051,81.282,82.483
			c0.077,0.414,0.603,4.118,0.208,1.041c0.141,1.093,0.233,2.191,0.326,3.29c0.177,2.099,0.214,4.207,0.208,6.312
			c-0.009,3.795-0.165,7.59-0.426,11.376c-0.117,1.701-0.275,3.398-0.448,5.094c-0.085,0.839-0.184,1.676-0.283,2.513
			c-0.353,2.976,0.432-3.02,0.015-0.065c-0.5,3.536-1.159,7.048-1.922,10.536c-1.446,6.604-3.437,13.082-5.834,19.4
			c-0.34,0.897-2.43,5.925-0.859,2.239c-0.643,1.508-1.323,2.999-2.016,4.484c-1.523,3.268-3.19,6.467-4.936,9.621
			c-3.513,6.35-7.486,12.438-11.705,18.338c-1.062,1.485-2.15,2.95-3.247,4.409c-0.354,0.471-2.294,2.982-0.27,0.372
			c-0.576,0.743-1.16,1.479-1.745,2.216c-2.607,3.289-5.31,6.503-8.056,9.678c-12.028,13.908-25.196,26.812-38.613,39.366
			c-45.138,42.238-93.142,81.412-139.524,122.259c-5.207,4.585-4.668,13.322,0,17.99
			C232.497,405.865,240.155,405.31,245.354,400.732L245.354,400.732z"/>
	</g>
</g>
</svg>
